HIERARCHY
ROOT Hips
{
	OFFSET 0.000000 0.000000 0.000000
	CHANNELS 6 Xposition Yposition Zposition Zrotation Yrotation Xrotation 
	JOINT LHipJoint
	{
		OFFSET 0.000000 0.000000 0.000000
		CHANNELS 3 Zrotation Yrotation Xrotation
		JOINT LeftUpLeg
		{
			OFFSET 1.363060 -1.794630 0.839290
			CHANNELS 3 Zrotation Yrotation Xrotation
			JOINT LeftLeg
			{
				OFFSET 2.448110 -6.726130 0.000000
				CHANNELS 3 Zrotation Yrotation Xrotation
				JOINT LeftFoot
				{
					OFFSET 2.562200 -7.039590 0.000000
					CHANNELS 3 Zrotation Yrotation Xrotation
					JOINT LeftToeBase
					{
						OFFSET 0.157640 -0.433110 2.322550
						CHANNELS 3 Zrotation Yrotation Xrotation
						End Site
						{
							OFFSET 0.000000 0.000000 0.000000
						}
					}
				}
			}
		}
	}
	JOINT RHipJoint
	{
		OFFSET 0.000000 0.000000 0.000000
		CHANNELS 3 Zrotation Yrotation Xrotation
		JOINT RightUpLeg
		{
			OFFSET -1.305520 -1.794630 0.839290
			CHANNELS 3 Zrotation Yrotation Xrotation
			JOINT RightLeg
			{
				OFFSET -2.542530 -6.985550 0.000000
				CHANNELS 3 Zrotation Yrotation Xrotation
				JOINT RightFoot
				{
					OFFSET -2.568260 -7.056230 0.000000
					CHANNELS 3 Zrotation Yrotation Xrotation
					JOINT RightToeBase
					{
						OFFSET -0.164730 -0.452590 2.363150
						CHANNELS 3 Zrotation Yrotation Xrotation
						End Site
						{
							OFFSET 0.000000 0.000000 0.000000
						}
					}
				}
			}
		}
	}
	JOINT LowerBack
	{
		OFFSET 0.000000 0.000000 0.000000
		CHANNELS 3 Zrotation Yrotation Xrotation
		JOINT Spine
		{
			OFFSET 0.028270 2.035590 -0.193380
			CHANNELS 3 Zrotation Yrotation Xrotation
			JOINT Spine1
			{
				OFFSET 0.056720 2.048850 -0.042750
				CHANNELS 3 Zrotation Yrotation Xrotation
				JOINT Neck
				{
					OFFSET 0.000000 0.000000 0.000000
					CHANNELS 3 Zrotation Yrotation Xrotation
					JOINT Neck1
					{
						OFFSET -0.054170 1.746240 0.172020
						CHANNELS 3 Zrotation Yrotation Xrotation
						JOINT Head
						{
							OFFSET 0.104070 1.761360 -0.123970
							CHANNELS 3 Zrotation Yrotation Xrotation
							End Site
							{
								OFFSET 0.000000 0.000000 0.000000
							}
						}
					}
				}
				JOINT LeftShoulder
				{
					OFFSET 0.000000 0.000000 0.000000
					CHANNELS 3 Zrotation Yrotation Xrotation
					JOINT LeftArm
					{
						OFFSET 3.362410 1.200890 -0.311210
						CHANNELS 3 Zrotation Yrotation Xrotation
						JOINT LeftForeArm
						{
							OFFSET 4.983000 -0.000000 -0.000000
							CHANNELS 3 Zrotation Yrotation Xrotation
							JOINT LeftHand
							{
								OFFSET 3.483560 -0.000000 -0.000000
								CHANNELS 3 Zrotation Yrotation Xrotation
								JOINT LeftFingerBase
								{
									OFFSET 0.000000 0.000000 0.000000
									CHANNELS 3 Zrotation Yrotation Xrotation
									JOINT LeftHandIndex1
									{
										OFFSET 0.715260 -0.000000 -0.000000
										CHANNELS 3 Zrotation Yrotation Xrotation
										End Site
										{
											OFFSET 0.000000 0.000000 0.000000
										}
									}
								}
								JOINT LThumb
								{
									OFFSET 0.000000 0.000000 0.000000
									CHANNELS 3 Zrotation Yrotation Xrotation
									End Site
									{
										OFFSET 0.000000 0.000000 0.000000
									}
								}
							}
						}
					}
				}
				JOINT RightShoulder
				{
					OFFSET 0.000000 0.000000 0.000000
					CHANNELS 3 Zrotation Yrotation Xrotation
					JOINT RightArm
					{
						OFFSET -3.136600 1.374050 -0.404650
						CHANNELS 3 Zrotation Yrotation Xrotation
						JOINT RightForeArm
						{
							OFFSET -5.241900 -0.000000 -0.000000
							CHANNELS 3 Zrotation Yrotation Xrotation
							JOINT RightHand
							{
								OFFSET -3.444170 -0.000000 -0.000000
								CHANNELS 3 Zrotation Yrotation Xrotation
								JOINT RightFingerBase
								{
									OFFSET 0.000000 0.000000 0.000000
									CHANNELS 3 Zrotation Yrotation Xrotation
									JOINT RightHandIndex1
									{
										OFFSET -0.622530 -0.000000 -0.000000
										CHANNELS 3 Zrotation Yrotation Xrotation
										End Site
										{
											OFFSET 0.000000 0.000000 0.000000
										}
									}
								}
								JOINT RThumb
								{
									OFFSET 0.000000 0.000000 0.000000
									CHANNELS 3 Zrotation Yrotation Xrotation
									End Site
									{
										OFFSET 0.000000 0.000000 0.000000
									}
								}
							}
						}
					}
				}
			}
		}
	}
}
MOTION
Frames: 8
Frame Time: 0.008333
2.729043 16.327925 1.972328 -4.704700 -85.446156 24.417179 -11.308719 -0.283819 1.916890 1.592036 7.488853 -43.347512 -1.190398 1.995331 37.881344 2.276288 11.660504 -6.974174 0.439500 -0.000000 -65.286500 9.711364 1.592733 -1.947371 -1.283291 -20.060657 -33.230546 1.810928 -1.587286 30.200783 -2.091395 -10.556162 -1.559276 -1.807000 -0.000000 -79.685400 4.495047 -3.157663 -0.163058 0.340408 -3.486452 -3.837194 -5.802373 -3.490784 -4.532995 9.820108 -7.617460 -0.686484 -2.965808 -0.301196 1.868178 0.000000 0.000000 0.000000 14.562682 -3.502179 -6.462351 -90.319157 -53.810997 20.630657 178.964173 -63.396073 179.748197 12.225448 -14.873723 -1.774449 -0.117347 1.425017 -0.000000 0.000000 0.000000 0.000000 0.000000 0.000000 0.000000 6.176735 -6.093525 1.543323 61.150264 4.296673 5.090241 -179.693535 80.878943 179.809287 -24.726887 13.485558 -3.153938 0.315497 -0.661517 0.000000 0.000000 0.000000 0.000000 0.000000 0.000000 0.000000 
2.702151 16.338166 2.007695 -1.831421 -82.530992 21.646215 -11.170861 -0.208839 2.334549 1.686482 5.702843 -43.806335 -1.141969 1.888814 37.343797 2.110693 10.624806 -6.756994 0.446900 -0.000000 -65.446799 9.832372 1.568993 -2.252903 -1.413909 -21.644112 -31.976123 1.846117 -1.529850 29.442826 -2.263777 -11.639125 -1.279651 -2.022400 0.000001 -79.563100 4.348604 -3.131617 -0.371119 0.335291 -3.454293 -3.901277 -5.696380 -3.464096 -4.595650 9.844173 -7.785968 -0.758972 -2.918738 -0.297749 1.852276 0.000000 0.000000 0.000000 14.362751 -3.630301 -6.599682 -92.018870 -53.382560 22.996894 179.030889 -63.870410 179.746436 12.463483 -14.841565 -1.807357 -0.132081 1.425234 -0.000000 0.000000 0.000000 0.000000 0.000000 0.000000 0.000000 5.998672 -6.062886 1.740986 59.537007 2.844029 3.992194 -179.727605 80.182652 179.812969 -24.757747 13.357397 -3.129343 0.328244 -0.657317 0.000000 0.000000 0.000000 0.000000 0.000000 0.000000 0.000000 
2.673845 16.354674 2.041570 0.179275 -79.505002 19.797630 -11.052737 -0.133085 2.776725 1.706581 3.795809 -44.246503 -1.096373 1.768769 36.623990 1.942458 9.609614 -6.363472 0.479900 -0.000000 -65.603700 9.929789 1.528308 -2.543382 -1.646811 -23.231776 -30.617652 1.881181 -1.453904 28.469318 -2.430991 -12.734720 -0.853338 -2.285400 -0.000000 -79.461700 4.066562 -3.122634 -0.608760 0.311247 -3.428890 -3.969855 -5.563225 -3.445859 -4.657060 9.835608 -7.950251 -0.823312 -2.854598 -0.293415 1.838832 0.000000 0.000000 0.000000 14.143714 -3.777475 -6.735484 -93.742178 -52.883818 25.404785 179.095301 -64.367324 179.745569 12.656012 -14.789689 -1.830974 -0.145904 1.424626 -0.000000 0.000000 0.000000 0.000000 0.000000 0.000000 0.000000 5.712166 -6.019432 1.935033 57.894389 1.472378 2.767973 -179.763091 79.435632 179.816126 -24.780593 13.275885 -3.114756 0.340942 -0.655223 -0.000000 0.000000 0.000000 0.000000 0.000000 0.000000 0.000000 
2.644140 16.376915 2.074029 1.758623 -76.392625 18.449012 -10.935802 -0.049583 3.240940 1.668206 1.781370 -44.664669 -1.055646 1.637992 35.720399 1.772727 8.623081 -5.787811 0.531400 0.000000 -65.764000 10.022250 1.478917 -2.811810 -1.971504 -24.778675 -29.167441 1.910342 -1.358905 27.296464 -2.594633 -13.850722 -0.282603 -2.605500 -0.000000 -79.340601 3.668334 -3.124078 -0.872015 0.272029 -3.404273 -4.042881 -5.400600 -3.430156 -4.718816 9.789931 -8.091033 -0.879652 -2.772907 -0.288114 1.827662 0.000000 0.000000 0.000000 13.906253 -3.937930 -6.866205 -95.478625 -52.316002 27.836494 179.155574 -64.887613 179.745603 12.799172 -14.725507 -1.845703 -0.158460 1.423262 -0.000000 0.000000 0.000000 0.000000 0.000000 0.000000 0.000000 5.317446 -5.940786 2.128900 56.197954 0.146285 1.389801 -179.799768 78.671202 179.818618 -24.840594 13.227428 -3.112678 0.354134 -0.654584 -0.000000 0.000000 0.000000 0.000000 0.000000 0.000000 0.000000 
2.613181 16.404243 2.105049 3.098523 -73.219195 17.411563 -10.809038 0.043412 3.723042 1.582587 -0.331421 -45.046451 -1.021261 1.497918 34.630128 1.603284 7.678016 -5.029262 0.594400 0.000000 -65.935600 10.121267 1.426034 -3.054370 -2.382820 -26.253599 -27.638580 1.929025 -1.246505 25.943900 -2.756278 -14.993585 0.429069 -2.992000 0.000000 -79.256000 3.161689 -3.131567 -1.152957 0.219064 -3.375870 -4.119171 -5.206539 -3.412487 -4.781629 9.704120 -8.192632 -0.928858 -2.674157 -0.281827 1.818321 0.000000 0.000000 0.000000 13.649198 -4.107766 -6.988200 -97.209564 -51.687735 30.271279 179.211038 -65.429228 179.746657 12.881082 -14.661168 -1.851144 -0.169123 1.421365 -0.000000 0.000000 0.000000 0.000000 0.000000 0.000000 0.000000 4.822398 -5.809203 2.326213 54.421586 -1.173039 -0.151548 -179.837258 77.922200 179.820376 -24.975058 13.193616 -3.123708 0.368330 -0.654646 -0.000000 0.000000 0.000000 0.000000 0.000000 0.000000 0.000000 
2.581237 16.435869 2.134389 4.305938 -70.014367 16.574930 -10.664228 0.145433 4.215997 1.456914 -2.533314 -45.364729 -0.995129 1.349573 33.349036 1.436608 6.791884 -4.092111 0.662899 -0.000000 -66.121700 10.235948 1.375270 -3.271066 -2.882923 -27.635952 -26.041637 1.933260 -1.120342 24.441011 -2.916579 -16.162524 1.269155 -3.450300 -0.000000 -79.188700 2.551220 -3.141843 -1.437843 0.152952 -3.340077 -4.195525 -4.979936 -3.389122 -4.842927 9.571111 -8.245665 -0.973682 -2.558148 -0.274465 1.809725 0.000000 0.000000 0.000000 13.360648 -4.279719 -7.096483 -98.899367 -51.023180 32.689671 179.261381 -65.991107 179.748741 12.899780 -14.600293 -1.847506 -0.177645 1.418799 -0.000000 0.000000 0.000000 0.000000 0.000000 0.000000 0.000000 4.227645 -5.612508 2.530189 52.562712 -2.509316 -1.852545 -179.874915 77.233425 179.821447 -25.191707 13.165262 -3.146449 0.383435 -0.654889 -0.000000 0.000000 0.000000 0.000000 0.000000 0.000000 0.000000 
2.548208 16.470767 2.162513 5.401040 -66.809768 15.925816 -10.498389 0.253373 4.717950 1.315635 -4.805495 -45.620508 -0.978091 1.195011 31.884661 1.275212 5.977787 -2.988324 0.732200 0.000000 -66.307200 10.368793 1.326100 -3.457560 -3.442595 -28.889841 -24.409360 1.920797 -0.983234 22.824391 -3.078524 -17.364594 2.203024 -3.981000 0.000000 -78.940200 1.849486 -3.146433 -1.725238 0.076063 -3.288887 -4.272255 -4.717400 -3.351918 -4.904764 9.397573 -8.246077 -1.016645 -2.429428 -0.266262 1.801120 0.000000 0.000000 0.000000 13.057910 -4.455488 -7.190549 -100.549417 -50.316207 35.062418 179.303940 -66.571940 179.751550 12.868004 -14.559752 -1.838685 -0.184007 1.416010 -0.000000 0.000000 0.000000 0.000000 0.000000 0.000000 0.000000 3.574110 -5.346255 2.745587 50.533850 -3.898363 -3.656081 -179.914822 76.611807 179.822008 -25.513545 13.098023 -3.173295 0.400642 -0.654177 -0.000000 0.000000 0.000000 0.000000 0.000000 0.000000 0.000000 
2.514992 16.508105 2.189034 6.432039 -63.638904 15.392953 -10.307440 0.363962 5.218129 1.164833 -7.137072 -45.772534 -0.972054 1.035722 30.240409 1.122839 5.260194 -1.734461 0.800299 0.000000 -66.495701 10.524765 1.285435 -3.623492 -4.070134 -30.028645 -22.739800 1.889184 -0.839748 21.113292 -3.241672 -18.599033 3.235560 -4.592400 0.000000 -78.837899 1.072033 -3.143545 -1.993242 -0.009020 -3.221379 -4.342505 -4.418234 -3.299214 -4.956185 9.159013 -8.202892 -1.063021 -2.284673 -0.256897 1.790591 0.000000 0.000000 0.000000 12.702285 -4.618423 -7.266609 -102.098159 -49.619227 37.373920 179.341142 -67.158917 179.755294 12.774932 -14.537663 -1.822890 -0.187865 1.412656 -0.000000 0.000000 0.000000 0.000000 0.000000 0.000000 0.000000 2.825919 -5.016548 2.974703 48.396321 -5.301754 -5.545766 -179.955796 76.146469 179.822383 -25.861250 13.005536 -3.196957 0.417897 -0.652705 -0.000000 0.000000 0.000000 0.000000 0.000000 0.000000 0.000000 
